<?xml version="1.0" encoding="utf-8"?>
<!-- Generator: Adobe Illustrator 28.3.0, SVG Export Plug-In . SVG Version: 6.00 Build 0)  -->
<svg version="1.0" id="Layer_1" xmlns="http://www.w3.org/2000/svg" xmlns:xlink="http://www.w3.org/1999/xlink" x="0px" y="0px"
	 viewBox="0 0 64 64" style="enable-background:new 0 0 64 64;" xml:space="preserve">
<style type="text/css">
	.st0{fill:none;stroke:#231F20;stroke-width:2;stroke-linecap:round;stroke-linejoin:round;stroke-miterlimit:10;}
</style>
<g>
	<line class="st0" x1="28.3" y1="51.2" x2="17.8" y2="51.2"/>
	<path class="st0" d="M42.9,48.3C42.9,48.3,42.9,48.3,42.9,48.3l-2.8-14.4H25.3c-2.3,0-4.1-1.8-4.1-4.1c0-2.3-1.8-4.1-4.1-4.1h-8
		H7.3c-2.5,0-4.5,2-4.5,4.5l0,21"/>
	<polyline class="st0" points="39.4,5.3 48.1,51.2 61.3,51.2 	"/>
	<path class="st0" d="M9.1,25.6V15.5c0-3.1,2.5-5.6,5.6-5.6h15.9c2.7,0,5,1.9,5.5,4.5l4,19.5"/>
	<circle class="st0" cx="10.3" cy="51.2" r="7.6"/>
	<circle class="st0" cx="10.3" cy="51.2" r="2.6"/>
	<circle class="st0" cx="35.9" cy="51.2" r="2.6"/>
	<circle class="st0" cx="35.9" cy="51.2" r="7.6"/>
</g>
</svg>
